<svg width="100" height="100" viewBox="0 0 100 100" fill="none" xmlns="http://www.w3.org/2000/svg">
  <rect width="100" height="100" rx="10" fill="#F9FAFB"/>
  <rect x="25" y="20" width="50" height="60" rx="5" fill="#E5E7EB"/>
  <rect x="30" y="25" width="40" height="5" rx="2.5" fill="#4F46E5"/>
  <rect x="30" y="35" width="20" height="20" rx="2" fill="#FFFFFF"/>
  <rect x="55" y="35" width="15" height="40" rx="2" fill="#FFFFFF"/>
  <rect x="30" y="60" width="20" height="15" rx="2" fill="#FFFFFF"/>
  <rect x="33" y="40" width="14" height="3" rx="1.5" fill="#8B5CF6"/>
  <rect x="33" y="45" width="10" height="3" rx="1.5" fill="#8B5CF6"/>
  <rect x="33" y="50" width="12" height="3" rx="1.5" fill="#8B5CF6"/>
  <rect x="57" y="40" width="10" height="3" rx="1.5" fill="#4F46E5"/>
  <rect x="57" y="45" width="10" height="3" rx="1.5" fill="#4F46E5"/>
  <rect x="57" y="50" width="10" height="3" rx="1.5" fill="#4F46E5"/>
  <rect x="57" y="55" width="10" height="3" rx="1.5" fill="#4F46E5"/>
  <rect x="57" y="60" width="10" height="3" rx="1.5" fill="#4F46E5"/>
  <rect x="57" y="65" width="10" height="3" rx="1.5" fill="#4F46E5"/>
  <rect x="33" y="65" width="14" height="3" rx="1.5" fill="#4F46E5"/>
  <rect x="33" y="70" width="10" height="3" rx="1.5" fill="#4F46E5"/>
</svg>
